<?xml version="1.0" encoding="utf-8"?>
<!-- Generator: Adobe Illustrator 27.4.0, SVG Export Plug-In . SVG Version: 6.00 Build 0)  -->
<svg version="1.1" id="Layer_1" xmlns="http://www.w3.org/2000/svg" xmlns:xlink="http://www.w3.org/1999/xlink" x="0px" y="0px"
	 viewBox="0 0 411 400" style="enable-background:new 0 0 411 400;" xml:space="preserve">
<g transform="translate(0.000000,451.000000) scale(0.100000,-0.100000)">
	<path d="M1661,4376l-154-30l7-118c7-109,6-119-11-124c-10-4-64-26-120-49l-103-43l-79,86l-79,87l-141-95c-77-51-141-95-141-96
		c0-2,23-49,50-105l50-103l-91-92c-104-105-85-102-218-35c-44,23-82,41-84,41s-46-64-98-141l-93-141l87-82c78-73,86-83,75-101
		c-7-11-29-63-50-115l-37-95l-119,3l-118,4l-30-154c-16-84-29-159-29-167c0-9,39-28,105-51l105-38v-132v-132l-105-38
		c-66-23-105-42-105-51c0-8,13-83,29-167l30-154l118,4l119,3l37-95c21-52,43-104,50-115c11-18,3-28-75-101l-87-82l93-141
		c52-77,95-141,97-141c1,0,49,23,105,50l103,50l92-91l92-92l-15-36c-9-20-31-66-49-103c-19-37-34-69-34-71s64-46,141-98l141-93
		l82,87c73,78,83,86,101,75c11-7,63-29,115-50l95-37l-3-118l-4-118l159-30c87-17,162-30,167-30s26,47,46,105l38,105h132h133l37-105
		c23-65,43-105,51-105s83,14,168,30l153,29l-7,118c-6,109-5,118,12,124c10,4,64,26,120,49l103,43l79-86l78-87l142,94
		c77,52,141,96,141,98s-18,40-41,84c-67,133-70,114,35,218l92,91l103-50c56-27,104-50,105-50c2,0,45,64,97,141l93,141l-87,82
		c-78,73-86,83-75,101c7,11,29,63,50,115l37,95l119-3l118-4l30,154c16,84,29,159,29,167c0,9-39,28-105,51l-105,38v132v132l105,38
		c66,23,105,42,105,51c0,8-13,83-29,167l-30,154l-118-4l-119-3l-37,95c-21,52-43,104-50,115c-11,18-3,28,75,101l87,82l-93,141
		c-52,77-95,141-97,141c-1,0-49-23-105-50l-103-50l-92,91c-105,104-102,85-35,218c23,44,41,82,41,84s-64,46-141,97l-141,95l-79-87
		l-79-86l-103,43c-56,23-110,45-120,49c-17,5-18,15-11,124l7,118l-154,29c-85,16-160,30-168,30c-9,0-28-39-51-105l-38-105h-132h-132
		l-38,105c-22,63-42,105-51,106C1821,4407,1746,4393,1661,4376z M2128,4017c9-7,12-23,9-44c-5-30-3-33,19-33c19,0,24,5,24,25
		c0,14-4,25-10,25c-5,0-10,9-10,20c0,17,7,20,45,20s45-3,45-20c0-11-4-20-10-20c-5,0-10-37-12-82c-3-81-4-83-28-83c-22,0-25,4-23,32
		c2,17-2,35-7,38c-6,3-10-2-10-11c0-57-83-73-131-25c-33,34-37,56-11,70c16,8,22,4,36-25c11-24,22-34,34-32c28,5,27,37-2,48
		c-31,11-34,36-6,43c33,8,24,30-10,25c-18-3-35,1-42,9C1999,4032,2088,4049,2128,4017z M1870,4011c0-15-11-21-47-27
		c-25-5-48-15-51-22c-3-9,3-10,23-2c56,21,100-39,75-100c-13-31-25-36-49-21c-10,7-11,13-1,31c14,26,7,50-15,50c-17,0-20-29-6-78
		c9-29,7-34-12-41c-17-7-24-4-31,9c-6,14-16,17-41,13c-61-10-97,55-55,97c23,23,41,25,58,8c13-13,16,0,4,20c-7,10-19,10-63,1
		c-30-7-58-16-63-20s4-42,19-84c24-64,26-78,14-86c-24-15-33-5-62,74c-22,56-33,74-44,70c-9-4-13-14-10-27c3-12,8-36,13-55l7-34
		l-38,6c-49,8-66,24-43,41c25,18,7,39-26,30c-15-3-30-13-33-20s12-45,33-84c33-60,36-72,24-80c-28-18-35-10-73,66
		c-29,58-41,74-50,65c-8-8-2-28,26-80c20-38,37-71,37-74c0-4-9-11-19-17c-17-9-24-1-61,65c-36,67-43,74-60,65c-11-6-20-13-20-17
		c0-3,21-34,46-70c44-61,51-93,21-93c-7,0-18,5-24,11c-7,7-18,3-36-15c-41-41-107-31-107,15c0,10-9,19-21,21s-28,13-36,24
		c-13,20-12,25,10,50c22,26,27,27,52,16c31-14,28-38-4-35c-24,3-29-15-6-24c9-3,24,2,35,12c19,17,50,15,50-3c0-5-7-15-15-22
		c-15-13-21-40-8-40s43,34,43,49c-1,24-36,66-57,66c-34,0-25,31,18,60c46,33,45,34-40,55c-43,11-44,12-25,30c19,19,20,19,84-4
		c48-18,70-21,86-14c20,9,20,12,7,39c-16,31-9,51,27,84c19,17,36,20,110,20c49,0,92-4,96-8c16-15-21-27-87-27c-75,0-116-21-104-53
		c8-19,26-22,41-8c5,5,52,25,104,45c70,26,96,32,102,23s8-8,8,3s31,22,113,42C1852,4035,1870,4036,1870,4011z M2373,4001
		c45-11,94-22,107-25c14-2,72-22,130-44c81-31,105-44,105-59c0-10-5-17-12-16c-6,2-25-32-41-75c-30-75-44-90-70-74c-10,7-9,16,4,47
		c14,35,14,39,0,47c-9,5-16,15-16,23s-7,11-21,8c-15-4-19-11-15-27c17-61,17-63,0-70c-10-4-20-3-24,1c-13,14-42,134-36,149
		c7,19,32,18,40-3c6-15,8-15,16-3c6,8,10,18,10,22c0,9-66,38-84,38c-15,0-51-142-48-187c4-72-79-85-144-22c-38,37-41,44-18,53
		c10,4,29-5,50-24c33-28,64-39,64-22c0,4-10,12-22,17c-32,14-35,35-5,35c20,0,26,7,35,42c6,23,9,45,6,50c-9,14-42,9-48-7
		c-14-37-56,5-56,57c0,16,4,19,23,14c12-3,39-9,61-12c31-6,38-4,34,7c-3,8-32,20-66,27c-50,11-62,18-62,33
		C2270,4024,2270,4024,2373,4001z M2743,3957c15-10,16-15,5-30c-12-16-15-16-35-2c-13,9-20,22-17,30C2703,3973,2721,3974,2743,3957z
		 M2801,3838c6-11,8-26,5-34c-7-19-36-18-36,1c0,8-4,15-10,15c-21,0-9-37,15-48c15-7,25-20,25-32c0-17-3-19-19-10c-11,5-27,10-35,10
		c-21,0-21-26,0-34c36-14,54-5,74,34c11,22,16,40,10,40c-12,0-13,10-1,28c15,24,68-10,244-157c82-68,102-98,64-95c-10,1-40-27-69-62
		c-28-35-55-64-59-64c-3,0-12,7-19,15c-11,13-8,22,18,54c30,37,30,39,13,55c-16,15-19,15-31,1c-26-31-52,22-34,69c9,23,21,20,69-19
		c29-24,46-32,50-25c8,13,8,14-59,69c-27,22-53,38-58,35c-4-3-26-32-48-65c-41-59-56-69-77-48c-8,8,2,30,39,81c27,39,48,71,46,72
		s-11,7-20,15c-15,11-21,4-58-63s-44-75-61-66c-11,6-18,19-16,33c1,16-4,23-20,25c-24,4-63,46-63,68c0,8,8,22,18,32
		c11,11,16,29,14,50c-3,26,1,34,19,41C2762,3870,2788,3862,2801,3838z M1020,3656c31-2,52-14,44-27c-3-6,20-37,51-70
		c55-57,57-61,40-79s-19-17-72,41c-59,63-60,64-83,49c-12-9-3-21,50-70c62-56,64-60,48-77c-17-16-19-16-43,7s-50,21-27-2
		c19-19,14-57-13-83c-18-19-35-25-70-25c-41,0-45,2-45,25c0,24,3,25,43,23c37-3,42,0,45,20c3,16-2,22-15,22c-11,0-24-5-29-10
		c-6-6-18-8-27-4c-13,4-14,10-7,24c7,13,7,21,0,25c-13,8-30-3-30-19s-37-28-45-15c-9,14,24,69,50,81c30,13,53,5,63-23
		c8-20,9-20,26-4c16,16,16,19,1,35c-9,10-24,16-34,13c-30-8-35,16-10,44l24,25l-52-7c-49-6-53-5-53,14s6,21,58,23c31,0,63,1,70,1
		c6-1,12,3,12,7s-27,11-60,15c-59,7-73,18-49,42c8,8,25,7,63-5C972,3663,1006,3656,1020,3656z M2183,3651c18-6,18-7,0-22
		c-23-20-205-132-407-249l-158-93l-85,84c-46,46-88,91-93,100c-8,14,4,24,71,59c106,55,203,88,324,110
		C1936,3658,2148,3665,2183,3651z M2421,3601c119-40,289-129,289-151c0-4-86-90-191-190l-190-183l-62,21c-70,25-209,45-249,37
		c-39-9-41,8-7,51c102,127,198,302,221,402l13,54l46-6C2316,3632,2375,3617,2421,3601z M2114,3458c-60-121-142-226-305-394
		c-92-94-179-192-194-217c-74-127-73-291,1-369l26-26l40,40c162,162,554,169,726,13l41-36l14,28c22,41,50,63,91,70
		c69,11,126-35,126-103c0-51-43-118-140-219c-53-55-104-111-113-125c-21-31-22-83-2-100c9-7,15-23,13-34c-4-31-43-32-73-2l-26,26
		h-299c-186,0-300,4-300,10c0,28,125,85,218,98c46,7,47,8,50,47l3,40l-79,17c-102,21-181,60-237,117c-25,25-45,49-45,53s180,8,400,8
		c332,0,400-2,400-14c0-22-87-96-143-121c-54-25-158-55-189-55c-15,0-18-8-18-43v-42l58-12c47-8,121-36,162-60c3-2,11,18,18,43
		c10,37,26,59,74,103c142,129,166,156,179,199c9,30,10,49,3,60c-16,25-29,25-62-3l-31-26l-518,3l-518,3l-54,30
		c-105,58-153,147-152,283c0,195,118,334,431,507c154,85,328,189,390,233c30,21,56,35,58,31S2129,3488,2114,3458z M3303,3401
		c31-44,57-85,57-91c0-8,6-9,18-4c9,4,32,8,51,8c55,1,75-36,79-145c3-58,0-89-7-89c-19,0-31,37-31,95c0,31-5,65-10,76
		c-11,20-45,26-55,10c-3-5,17-58,45-116c27-59,48-111,45-115c-3-5,0-10,5-12c9-3,59-155,60-182c0-4-12-6-27-3c-16,4-60-3-101-15
		c-63-18-75-19-83-7c-15,23-10,37,14,41c19,3,22,8,19,41c-4,45,16,73,58,82c34,7,42,33,19,58c-14,15-21,17-37,8c-28-15-38-14-57,5
		c-14,15-17,13-32-25c-16-41-39-53-49-27c-4,11,47,149,62,165c10,12,35-25,30-45c-4-13-2-25,3-28c13-8,41,4,41,18
		c0,23-50,116-62,116c-7-1-42-18-78-40c-59-35-66-37-77-23c-7,9-13,20-13,23s34,25,75,49c66,38,74,45,65,62c-6,10-13,19-17,19
		c-3,0-35-21-70-46c-61-43-66-45-81-30c-16,16-15,18,8,36s24,19,7,38c-27,30-21,69,15,102c17,16,29,33,25,36c-7,7,10,34,22,34
		C3242,3480,3271,3444,3303,3401z M843,3211c31-18,57-34,57-36c0-13-14-35-23-35c-5,0-41,18-78,39c-65,38-69,39-79,21
		c-9-17-2-24,62-56c88-44,81-38,73-63c-5-16-12-20-31-15c-20,5-24,2-24-16c0-35-52-80-95-80c-32,0-35,2-25,19c16,31,12,59-10,66
		c-11,3-24,3-30,0c-14-9-12-26,3-24c32,4,38-1,27-21c-13-24-52-26-70-5c-14,17-7,57,16,79c36,37,114,8,114-42c0-20,3-22,14-13
		c8,6,16,23,19,37c4,21-2,30-27,45c-18,12-40,17-54,14c-13-3-27-3-32,0c-9,6,33,100,68,154l16,23l25-30C773,3256,811,3228,843,3211z
		 M1179,3066c63-63,82-89,78-103c-4-10-18-49-31-88c-30-83-35-197-11-266c23-65,79-135,139-174c50-32,54-37,69-97c8-35,18-70,22-79
		c4-12-44-64-180-195c-103-99-192-182-200-186c-18-11-94,139-133,262c-73,230-68,503,11,735c36,105,126,275,146,275
		C1093,3150,1133,3112,1179,3066z M3097,3015c138-269,161-615,60-910c-37-107-126-275-147-275c-4,0-89,86-190,191l-183,190l21,62
		c46,132,49,299,6,420l-15,42l103,100c246,240,289,279,299,264C3057,3091,3077,3054,3097,3015z M621,2962c9-11,48-27,88-37
		c69-18,79-27,62-53c-6-11-17-11-55-1c-53,13-66,6-66-40c0-20,4-23,28-19c15,3,35,9,44,13c12,5,20,2,25-10c8-23-17-42-69-50
		c-31-5-44-3-59,11c-21,19-21,28-3,98c4,16,2,26-5,26c-6,0-18-26-27-57c-19-67-29-82-45-66c-9,9-8,28,5,75
		C582,2991,588,3000,621,2962z M2110,2850c24-24,26-76,5-104c-16-21-20-66-7-66c5,0,17-6,28-14c17-13,8-15-84-18c-104-3-126,5-72,25
		c34,13,38,33,14,79C1954,2829,2049,2911,2110,2850z M3570,2813c0-8,16-113,25-170c5-28,3-33-15-33c-11,0-23,7-26,15
		c-4,8-16,15-29,15c-24,0-35,17-35,55c0,34-24,50-44,30c-21-22-20-32,5-45c30-17,22-55-12-55c-14,0-33-6-41-12c-8-7-18-10-21-6
		c-12,11-7,40,8,53c8,7,15,28,15,47c0,35,36,83,63,83c24,0,51-27,64-66c12-38,12-37,8,29c-5,62-4,67,15,67
		C3561,2820,3570,2817,3570,2813z M3360,2647c0-18-51-78-61-72c-14,10-11,31,12,70c17,28,24,33,35,24C3354,2663,3360,2653,3360,2647
		z M540,2590c0-27,5-50,10-50c6,0,10,12,10,27c0,56,51,78,110,48c34-17,34-19,20-46c-10-18-13-18-33-4c-30,21-59,20-55-2
		c2-14,15-19,61-21c53-3,57-5,57-27c0-18-5-25-20-25s-20-7-20-29c0-37-43-74-74-65c-27,8-46,32-46,60c0,12,6,25,13,28c6,3,3,5-8,3
		c-17-2-20-10-20-57c0-48-2-55-20-55c-19,0-20,8-23,133c-3,128-2,132,17,132C537,2640,540,2634,540,2590z M3506,2448
		c-7-68-11-77-27-61c-18,18-2,123,18,123C3510,2510,3512,2500,3506,2448z M718,2342c3-21-4-25-63-34c-14-2-20-11-20-28
		c0-18,5-24,17-22c30,5,31-19,2-49c-39-41-51-37-61,23c-4,29-14,53-22,56c-11,4-13-5-7-49c10-78,17-99,30-99c6,0,43,9,81,19
		c75,21,85,20,85-9c0-14-11-22-42-30c-106-28-118-33-118-52c0-23-1-23,92,6c80,25,88,24,88-5c0-13-20-24-79-44c-68-22-78-29-74-45
		c7-26,10-26,94,12c59,26,72,29,80,17c16-25,10-34-37-53c-25-10-48-24-51-31c-2-7,5-30,16-52c11-21,20-30,21-21c0,9-4,20-10,23
		c-15,9-12,41,6,56c12,10,22,10,45,2c23-9,29-9,29,3c0,8,3,14,8,14c20-1,28-20,27-70c0-52-1-55-25-55c-20,0-25,5-25,27
		c-1,30-20,56-32,45c-4-4-1-13,5-19c17-17,15-49-4-76c-25-36-43-26-76,43c-17,37-32,64-35,62c-7-8,75-177,86-177c5,0,40,19,76,42
		c62,39,67,40,83,24s16-18-1-30c-15-11-15-15-3-25c35-29,27-89-15-112c-41-22-111,33-81,63c7,7,16,6,27-6c9-9,21-16,26-16
		c16,0,22,29,9,45c-11,13-17,12-51-7c-22-12-39-24-39-28c0-3,14-28,31-55c24-37,28-50,17-56c-21-14-28-11-41,18c-12,27-12,26-17-22
		c-4-43-8-50-25-47c-11,2-21,5-22,5c-1,1,3,26,8,55c15,83,6,94-19,24c-20-52-26-61-38-51c-20,16-18,29,15,88c26,48,31,91,11,91
		c-9,0-113,236-131,297c-11,38-14,41-39,36c-84-16-110,95-54,224c16,37,17,37,23,13c4-14,1-52-7-85c-15-66-6-105,26-105
		c10,0,21,2,23,5c3,2-5,55-17,117s-20,116-18,120c7,12,32,10,36-3c2-7,27-6,78,4C708,2371,714,2370,718,2342z M3565,2236
		c14-20,14-29,4-48c-17-33-29-39-66-32c-29,5-33,3-33-15c0-22,33-30,45-11c3,5,13,6,21,3c12-4,14-14,9-42c-13-74-120-341-137-341
		c-4,0-8-5-8-10c0-8-92-162-106-179c-6-7-34,21-29,29c3,5-26,28-65,52c-71,44-79,55-58,76c8,8,22,5,56-15l44-26l19,24
		c26,34,19,44-34,47c-39,3-47,7-47,22c0,39,100,38,136-1c18-20,18-21-9-69c-44-78-15-67,36,14c26,41,47,76,47,80c0,3-14,13-31,22
		c-25,12-30,20-26,40s1,24-12,19c-62-26-73-28-82-14c-15,24-11,27,69,53c95,32,102,32,102,1c0-15-6-25-14-25c-23,0-27-28-5-35
		c11-4,22-5,24-3c4,3,55,119,55,123c0,2-36,15-80,30c-62,21-80,31-80,45c0,30,14,31,91,5c87-30,85-30,92-7c4,16-7,22-72,37
		c-92,21-90,20-84,45c5,18,11,20,48,14c33-4,43-2,48,10c4,9-1,19-11,25c-15,9-14,13,12,40c34,35,56,40,56,12c0-10,7-22,16-25
		c23-9,34-7,34,4c0,6-6,10-14,10c-9,0-12,7-9,20C3524,2267,3546,2265,3565,2236z M1836,1881c117-45,300-47,417-5l42,16l178-184
		c98-101,182-190,187-200c8-13-5-23-78-61c-334-171-740-170-1069,2c-43,23-89,50-103,61l-25,20l190,185c105,101,195,184,200,185
		C1781,1900,1808,1891,1836,1881z M1038,1528c7-7,12-24,12-38c0-53-57-69-86-25c-15,23-15,27,0,50C982,1542,1018,1548,1038,1528z
		 M3136,1495c15-23,15-27,0-50c-29-44-86-28-86,25S3107,1539,3136,1495z M1227,1430c47-28,67-63,59-105c-4-19-10-35-14-35
		c-17,1-52,40-52,58c0,11-7,25-15,32c-32,27-88-41-71-86c5-12,14-15,34-11c18,4,35-1,52-14c24-19,25-20,6-34c-57-44-164,16-166,93
		c0,35,28,81,63,102C1163,1455,1187,1455,1227,1430z M2984,1381l95-58l-23-22c-15-14-32-21-43-17c-23,7-65-27-57-47
		c5-14-41-56-51-46c-2,2-20,49-39,104l-36,100l27,22c16,13,29,23,30,23S2932,1414,2984,1381z M2779,1246c28-46,51-88,51-94
		c0-10-49-47-54-40c-12,15-106,177-106,182c0,4,46,33,57,36C2728,1330,2751,1292,2779,1246z M1424,1306c39-16,66-51,66-83
		c0-13-2-23-5-23c-16,0-63,31-68,45c-4,8-14,15-23,15c-12,0-5-13,25-45c44-48,49-68,25-103c-42-60-197,15-170,83c5,13,10,14,28,4
		c13-6,32-23,44-37c12-15,26-22,33-18c8,5,0,21-29,52c-47,51-49,66-15,99C1363,1324,1378,1325,1424,1306z M2619,1237
		c29-15,61-72,61-109c0-15-10-39-23-53c-24-29-127-78-139-67c-14,15-77,186-71,193c12,10,116,48,133,48
		C2588,1250,2606,1244,2619,1237z M1628,1216c4-5-44-158-59-188c-8-14-14-15-40-6c-35,12-35,14,8,136c26,73,27,74,56,68
		C1610,1223,1625,1218,1628,1216z M1783,1174c75-13,111-69,68-108c-16-14-18-22-9-35c6-10,8-33,4-53c-6-34-8-35-39-29
		c-30,6-32,9-29,44c2,20-1,37-6,37c-6,0-17,3-26,6c-11,4-17-4-22-31c-6-35-8-37-37-31c-17,3-33,8-35,11c-5,4,27,184,35,198
		c3,5,17,6,31,3C1733,1183,1762,1178,1783,1174z M2414,1101c20-110,20-117,0-125c-34-13-54-4-95,42c-35,39-41,43-36,22
		c20-91,20-87-14-94c-18-3-33-5-35-4c-1,2-11,48-22,103c-22,108-20,115,29,115c18,0,38-12,63-40c20-22,38-40,40-40s0,17-5,38
		c-12,53-11,60,9,65C2395,1196,2397,1193,2414,1101z M2138,1038l3-108h-34h-35l-4,103c-3,56-3,106,0,110c2,4,18,7,35,5l32-3
		L2138,1038z M2003,1029c31-50-38-105-75-59c-22,27-23,44-2,65C1946,1054,1989,1051,2003,1029z"/>
	<path d="M1701,3901c-19-12-6-43,16-39c10,2,18,12,18,22C1735,3906,1721,3913,1701,3901z"/>
	<path d="M2596,3874c-8-20,1-34,20-34c20,0,30,30,13,41C2609,3893,2603,3892,2596,3874z"/>
	<path d="M3221,3371c-16-12-22-24-18-35c8-21,29-20,58,3c20,16,21,21,10,35C3254,3394,3251,3394,3221,3371z"/>
	<path d="M3433,2923c-14-5-18-43-5-43c5,0,14,11,20,25C3459,2930,3457,2933,3433,2923z"/>
	<path d="M3471,2903c-10-22-10-25,4-19c9,3,19,6,21,6s4,6,4,14C3500,2930,3483,2930,3471,2903z"/>
	<path d="M602,2468c2-12,10-23,18-23c22,0,19,39-3,43C602,2491,599,2487,602,2468z"/>
	<path d="M2910,1344c0-3,5-14,11-25c8-16,13-18,25-8s12,13-3,25C2924,1350,2910,1354,2910,1344z"/>
	<path d="M2541,1181c-11-7-11-16,4-55c19-49,38-57,59-24c8,13,6,26-7,52C2580,1190,2566,1197,2541,1181z"/>
	<path d="M1745,1113c-6-18,12-34,35-30c22,4,18,29-7,38C1757,1127,1750,1124,1745,1113z"/>
	<path d="M2326,335c-21-52-6-68,28-32c46,49,56,38,56-63c0-73-3-90-15-90c-8,0-15-9-15-20c0-18,7-20,60-20s60,2,60,20
		c0,11-7,20-15,20c-12,0-15,17-15,90c0,99,11,113,48,65c21-26,42-33,42-14c0,7-5,28-11,48l-11,36h-98h-99L2326,335z"/>
	<path d="M774,360c-11-4-33-22-47-40c-21-25-27-42-27-82c0-43,4-54,33-83c57-57,125-59,187-5c28,24,32,31,21,39c-11,7-23,3-44-15
		c-49-41-106-29-126,27c-16,47-14,73,10,103c29,37,73,35,107-4c15-16,32-30,39-30c16,0,16,0,2,53l-10,43l-62,1
		C823,368,786,365,774,360z"/>
	<path d="M1034,360c-25-10-54-47-54-70c0-27,38-59,83-70c62-17,91-38,76-56c-21-26-68-17-106,21c-22,22-40,32-45,27
		c-14-14,1-102,17-102c7,0,15,5,17,10c2,7,14,6,34-1c42-17,99-4,124,28c39,50,16,95-63,118c-67,20-81,29-74,49c10,27,60,20,91-13
		c39-41,56-32,43,22l-9,42l-57,2C1080,367,1045,364,1034,360z"/>
	<path d="M1230,350c0-11,7-20,15-20c12,0,15-17,15-90s-3-90-15-90c-8,0-15-9-15-20c0-18,7-20,60-20s60,2,60,20c0,11-7,20-15,20
		c-12,0-15,17-15,90s3,90,15,90c8,0,15,9,15,20c0,18-7,20-60,20S1230,368,1230,350z"/>
	<path d="M1380,350c0-11,7-20,15-20c12,0,15-17,15-90s-3-90-15-90c-8,0-15-9-15-20c0-18,7-20,60-20c52,0,60,2,60,19c0,10-7,21-15,25
		c-20,7-20,66,0,66c8,0,33-25,56-55c38-50,45-55,80-55c32,0,39,3,39,20c0,11-6,20-13,20c-14,0-84,67-76,73c2,3,14,10,27,16
		c51,27,44,101-10,120c-17,6-71,11-119,11C1387,370,1380,368,1380,350z M1565,290c0-23-4-25-47-28c-48-3-48-3-48,28s0,31,48,28
		C1561,315,1565,313,1565,290z"/>
	<path d="M1810,351c0-10,9-21,20-24c18-5,20-14,20-87s-2-82-20-87c-11-3-20-14-20-24c0-17,8-19,65-19s65,2,65,19c0,10-9,21-20,24
		c-18,5-20,14-20,87s2,82,20,87c11,3,20,14,20,24c0,17-8,19-65,19S1810,368,1810,351z"/>
	<path d="M1970,351c0-10,7-21,15-25c12-4,15-24,15-86s-3-82-15-86c-8-4-15-15-15-25c0-16,8-19,50-19c43,0,50,3,50,20
		c0,11-7,20-15,20c-12,0-15,15-14,78l1,77l31-98c22-70,35-97,46-95c9,2,25,40,42,102c16,54,31,101,34,104s5-34,5-81c0-71-3-87-15-87
		c-8,0-15-9-15-20c0-18,7-20,60-20s60,2,60,20c0,11-7,20-15,20c-12,0-15,17-15,90s3,90,15,90c8,0,15,9,15,20c0,18-7,20-58,20h-59
		l-23-77c-25-86-26-86-55,20l-16,57h-55C1978,370,1970,367,1970,351z"/>
	<path d="M2590,350c0-11,7-20,15-20c12,0,15-17,15-90s-3-90-15-90c-8,0-15-9-15-20c0-19,7-20,109-20h109l16,47c9,26,16,48,16,50
		c0,11-26-1-52-22c-20-17-42-25-69-25c-38,0-39,1-39,35c0,29,4,35,21,35c12,0,23-8,26-20c11-40,23-18,23,40s-12,80-23,40
		c-8-31-47-27-47,5c0,23,4,25,44,25c26,0,48-6,56-15c7-8,21-15,31-15c16,0,17,3,5,38l-13,37l-106,3C2595,371,2590,370,2590,350z"/>
	<path d="M2930,352c-98-48-84-202,21-233c49-15,105-1,138,35s17,53-21,21c-65-55-138-18-138,71c0,82,73,114,123,54c30-36,47-38,46-7
		c-3,62-11,70-75,73C2982,369,2954,365,2930,352z"/>
	<path d="M3140,351c0-10,9-21,20-24c18-5,20-14,20-87s-2-82-20-87c-11-3-20-14-20-24c0-17,8-19,65-19s65,2,65,19c0,10-9,21-20,24
		c-15,4-20,14-20,36c0,31,1,31,50,31h50v-35c0-24-5-35-15-35c-8,0-15-9-15-20c0-18,7-20,60-20c52,0,60,2,60,19c0,10-7,21-15,25
		c-12,4-15,24-15,86s3,82,15,86c8,4,15,15,15,25c0,17-8,19-60,19c-53,0-60-2-60-20c0-11,7-20,15-20c10,0,15-11,15-35v-35h-50
		c-49,0-50,0-50,31c0,22,5,32,20,36c11,3,20,14,20,24c0,17-8,19-65,19S3140,368,3140,351z"/>
	<path d="M1680,200c0-17,7-20,50-20s50,3,50,20s-7,20-50,20S1680,217,1680,200z"/>
</g>
</svg>
